<?xml version="1.0" encoding="UTF-8"?>
<svg id="Layer_2" data-name="Layer 2" xmlns="http://www.w3.org/2000/svg" viewBox="0 0 857.15 213.98">
  <defs>
    <style>
      .cls-1 {
        fill: #eaeaea;
      }

      .cls-1, .cls-2 {
        stroke-width: 0px;
      }

      .cls-2 {
        fill: #c48041;
      }
    </style>
  </defs>
  <g id="Layer_1-2" data-name="Layer 1">
    <g>
      <path class="cls-2" d="M470.95,84.17c-3.31,8.7-6.65,17.39-9.92,26.11-7.34,19.57-14.64,39.17-21.96,58.75-.37.98-.81,1.91-1.22,2.86h-27.87c-16.43-43.96-32.86-87.92-49.43-132.25h27.91c11.73,31.39,23.5,62.87,35.52,95.03,11.99-32.04,23.73-63.4,35.53-94.94h27.77c-4.23,11.55-8.39,22.91-12.55,34.28-1.27,3.39-2.53,6.77-3.8,10.16Z"/>
      <path class="cls-1" d="M294.91,85.72c3.22-1.88,6.33-3.97,9.67-5.6,8.97-4.35,18.45-4.91,28.18-3.38,17.62,2.78,34.48,17.26,39,38.87,2.27,10.87,1.47,21.48-2.81,31.7-6.54,15.62-18,25.57-34.69,29.17-9.08,1.96-18.06,1.42-26.87-1.52-1.25-.42-2.45-.98-3.94-1.59,2.77-6.93,5.46-13.66,8.21-20.53,1.48.34,2.84.67,4.21.95,4.41.89,8.89,1.37,13.23-.02,12.56-4.02,23.02-15.16,20.47-31.46-1.25-7.95-5.35-13.9-12.05-18.38-7.14-4.77-14.72-6.01-22.93-3.95-11.7,2.93-20.38,13.98-20.39,26.04-.02,28.16.01,56.32.03,84.48,0,.97,0,1.95,0,2.88-1.97.59-17.6.8-22.7.35-.52-1.88-.73-130.42-.2-134.98h22.93c0,2.28,0,4.56,0,6.84.03.15.07.29.1.44.18-.1.37-.21.55-.31Z"/>
      <path class="cls-2" d="M479.01,113.01c2.42-7.75,6.1-14.79,11.77-20.69,1.47-1.54,3.01-3.01,4.52-4.51,2.2-1.58,4.4-3.17,6.6-4.75.63-.31,1.26-.62,1.88-.95,4.55-2.4,9.24-4.49,14.4-5.11,4.11-.49,8.25-.74,12.38-1.09,2.85.38,5.71.76,8.56,1.13,3.75,1.37,7.68,2.37,11.22,4.16,15.28,7.77,24.52,20.2,27.86,37.02,1.25,6.3.98,12.58-.21,18.85-.06.34-.22.66-.43,1.27h-74.3c.09,2,1,3.35,1.95,4.57,5.45,7.07,12.45,11.27,21.57,11.63,5,.2,9.73-.6,14.24-2.83.7-.34,1.78-.41,2.5-.13,7.45,2.91,14.87,5.92,22.71,9.07-2.97,2.9-5.63,5.61-8.76,7.8-12.83,8.96-26.89,11.41-41.97,7.49-19.75-5.13-31.82-18-37.03-37.52-1.34-5.03-1.41-10.22-1.37-15.39.64-3.34,1.28-6.69,1.92-10.03ZM502.87,115.34h50.02c-1.71-8.31-13.39-15.78-25.59-16.22-9.02-.33-21.18,6.38-24.43,16.22Z"/>
      <path class="cls-2" d="M855.69,138.42h-74.77c.7,1.4,1.09,2.48,1.72,3.38,5.45,7.71,12.68,12.29,22.32,12.76,4.74.23,9.21-.69,13.48-2.64,1.2-.55,2.28-.75,3.57-.22,7.08,2.89,14.2,5.72,21.3,8.57.24.1.45.28.68.42-13.5,16.19-38.73,23.54-62.97,10.35-23.45-12.76-32.15-42.09-20.51-66.26,10.82-22.46,37.74-35.96,64.89-25.03,25.66,10.33,35.83,37.55,30.3,58.67ZM831.22,115.34c-.05-1.64-.91-2.78-1.64-3.97-1.67-2.71-4.19-4.54-6.64-6.48-6.47-5.14-13.89-6.71-21.83-5.34-7.58,1.31-13.67,5.34-18.1,11.7-.83,1.2-1.75,2.44-1.54,4.09h49.75Z"/>
      <path class="cls-2" d="M645.7,78.66h25.25c10.62,22.94,21.25,45.9,32.13,69.4,10.86-23.44,21.47-46.34,32.12-69.33h25.11c-.4,1-.68,1.81-1.04,2.59-14.17,30.6-28.36,61.18-42.48,91.8-.74,1.6-1.53,2.28-3.36,2.26-7.57-.1-15.14-.04-22.96-.04-14.87-32.1-29.73-64.2-44.77-96.68Z"/>
      <path class="cls-1" d="M196.9,85.09c6.87-5.33,14.65-8.29,23.3-8.98,1.05-.08,2.1-.11,3.32-.17v22.59c-2,.3-3.93.52-5.83.88-13.1,2.48-22.06,15.6-21.91,27.1.19,15.23.07,30.46.08,45.69,0,.96,0,1.92,0,3.03h-22.99v-96.48h22.98c0,2.11,0,4.21,0,6.31.09.2.18.4.28.6.26-.19.51-.37.77-.56Z"/>
      <path class="cls-2" d="M640.58,75.96v22.53c-.69.11-1.28.26-1.87.3-10.5.83-18.04,6.19-22.88,15.33-2.05,3.88-2.96,8.17-2.95,12.63.03,14.53.02,29.06.02,43.58,0,1.51,0,3.02,0,4.47-2,.69-16.45.93-22.69.42-.56-1.99-.83-91.48-.28-96.49h22.88v7.23c8.29-6.74,17.37-9.8,27.77-10.01Z"/>
      <path class="cls-1" d="M257.36,175.27h-22.89v-96.56h22.89v96.56Z"/>
      <path class="cls-1" d="M234.48,63.1v-22.86c7.57,0,15.1,0,22.62,0,.57,1.9.65,19.29.08,22.86h-22.7Z"/>
      <g>
        <path class="cls-2" d="M.1.19c.98-.02,1.96-.06,2.94-.06,23.43,0,46.86,0,70.29,0,1.07,0,2.13-.07,3.2-.1,6.06,0,12.13,0,18.19,0,1.42,0,2.85-.01,4.27-.02,9.99,0,19.97.01,29.96.02,1.16.03,2.31.1,3.47.1,31.27,0,62.54,0,93.81.01,1.06,0,2.13.09,3.19.14-.02.12,0,.23.07.33-.57.78-1.1,1.6-1.72,2.33-3.3,3.85-6.7,7.61-9.92,11.53-1.6,1.95-3.36,2.79-5.94,2.79-37.64-.08-75.28-.06-112.92-.06-.89,0-1.77.06-2.66.09-5.89,0-11.78.02-17.67.03-1.07-.03-2.13-.1-3.2-.1-18.24,0-36.48-.06-54.72.04-3.52.02-6.36-1.1-9-3.31C7.27,10.17,3.82,5.52,0,1.19.03.85.07.52.1.19Z"/>
        <g>
          <path class="cls-1" d="M211.82,22.77c-.75.94-.99,1.29-1.28,1.61-4.59,4.97-9.26,9.88-13.75,14.94-1.95,2.19-4.2,3.04-7.04,3.09-13.63.25-27.25.59-40.88.89-.98.02-1.96,0-2.94.08-2.91.26-4.23,1.42-4.47,4.31-.18,2.21-.05,4.45-.02,6.67.07,5.61.17,11.22.26,16.83.24,15.41.49,30.82.72,46.23.35,22.63.7,45.25,1.02,67.88.05,3.44-.07,6.89-.11,10.66-.73-.28-1.16-.36-1.48-.59-7.62-5.26-15.22-10.55-22.84-15.8-1.58-1.09-2.44-2.51-2.49-4.46-.14-5.88-.4-11.75-.48-17.63-.38-25.57-.74-51.13-1.05-76.7-.12-9.98-.08-19.95-.18-29.93-.03-3.45.99-6.49,3.12-9.15,3.73-4.66,7.49-9.29,11.24-13.93,2.27-2.8,5.19-4.11,8.84-4.17,22.45-.35,44.89-.79,67.34-1.17,1.93-.03,3.87.18,6.47.32Z"/>
          <path class="cls-1" d="M108.86,55.04c.09,1.12.21,2.07.23,3.01.23,11.75.46,23.51.65,35.26.39,23.95.75,47.91,1.11,71.86.03,1.78.06,3.57-.05,5.34-.16,2.44-1.2,2.96-3.31,1.63-3.76-2.37-7.51-4.78-11.2-7.26-2.29-1.54-4.42-3.3-6.69-4.88-2.32-1.61-3.39-3.8-3.42-6.57-.09-6.68-.19-13.36-.3-20.03-.22-14.25-.28-28.5-.76-42.74-.19-5.5,1.2-9.95,4.83-14.14,5.24-6.05,9.98-12.54,14.95-18.82.93-1.18,1.81-2.47,3.96-2.65Z"/>
        </g>
        <path class="cls-2" d="M21.55,23.73c2.49,0,4.97.02,7.46.02,16.11,0,32.22,0,48.33,0,1.15,0,2.31-.06,3.46-.09.33.09.66.27.99.26,4.12-.08,8.25-.19,12.37-.29,4.1.03,8.19.06,12.29.1,4.72.05,9.44.13,14.16.2.41,0,.81.1,1.75.23-13.07,15.17-25.23,30.53-37.81,45.53-.26-.1-.52-.19-.79-.29-.09-.91-.25-1.81-.25-2.72,0-5.7.06-11.4.05-17.1-.01-5.6-1.21-6.74-6.72-6.73-11.4.01-22.8-.04-34.21.02-2.85.02-5.29-.88-7.29-2.78-5.04-4.78-9.86-9.78-14.03-15.36.08-.34.16-.67.24-1.01Z"/>
      </g>
    </g>
  </g>
</svg>