<?xml version="1.0" encoding="UTF-8"?>
<svg id="Layer_2" data-name="Layer 2" xmlns="http://www.w3.org/2000/svg" viewBox="0 0 920.89 224.49">
  <defs>
    <style>
      .cls-1 {
        fill: #333;
      }

      .cls-1, .cls-2 {
        stroke-width: 0px;
      }

      .cls-2 {
        fill: #c48041;
      }
    </style>
  </defs>
  <g id="Layer_1-2" data-name="Layer 1">
    <g>
      <g>
        <path class="cls-1" d="M211.82,26.08c-.75,1.08-.99,1.48-1.28,1.84-4.59,5.7-9.26,11.32-13.75,17.12-1.95,2.51-4.2,3.48-7.04,3.54-13.63.29-27.25.67-40.88,1.02-.98.03-1.96-.01-2.94.09-2.91.29-4.23,1.63-4.47,4.94-.18,2.53-.05,5.1-.02,7.65.07,6.43.17,12.85.26,19.28.24,17.65.49,35.31.72,52.96.35,25.92.7,51.84,1.02,77.75.05,3.95-.07,7.89-.11,12.21-.73-.33-1.16-.42-1.48-.67-7.62-6.03-15.22-12.08-22.84-18.1-1.58-1.25-2.44-2.87-2.49-5.11-.14-6.73-.4-13.46-.48-20.19-.38-29.28-.74-58.57-1.05-87.85-.12-11.43-.08-22.86-.18-34.29-.03-3.95.99-7.43,3.12-10.49,3.73-5.33,7.49-10.65,11.24-15.96,2.27-3.21,5.19-4.71,8.84-4.78,22.45-.4,44.89-.91,67.34-1.34,1.93-.04,3.87.21,6.47.36Z"/>
        <path class="cls-2" d="M.1.21c.98-.02,1.96-.07,2.94-.07,23.43,0,46.86,0,70.29,0,1.07,0,2.13-.08,3.2-.12,6.06,0,12.13,0,18.19,0,1.42,0,2.85-.01,4.27-.02,9.99,0,19.97.01,29.96.02,1.16.04,2.31.11,3.47.11,31.27,0,62.54,0,93.81.01,1.06,0,2.13.1,3.19.16-.02.14,0,.26.07.37-.57.89-1.1,1.83-1.72,2.67-3.3,4.41-6.7,8.72-9.92,13.2-1.6,2.23-3.36,3.2-5.94,3.19-37.64-.09-75.28-.07-112.92-.07-.89,0-1.77.07-2.66.11-5.89,0-11.78.02-17.67.03-1.07-.04-2.13-.11-3.2-.11-18.24,0-36.48-.07-54.72.05-3.52.02-6.36-1.26-9-3.8C7.27,11.65,3.82,6.32,0,1.36.03.98.07.59.1.21Z"/>
        <path class="cls-1" d="M108.86,63.05c.09,1.28.21,2.37.23,3.45.23,13.46.46,26.92.65,40.39.39,27.44.75,54.88,1.11,82.32.03,2.04.06,4.09-.05,6.12-.16,2.79-1.2,3.39-3.31,1.87-3.76-2.72-7.51-5.47-11.2-8.32-2.29-1.76-4.42-3.79-6.69-5.58-2.32-1.84-3.39-4.35-3.42-7.53-.09-7.65-.19-15.3-.3-22.95-.22-16.32-.28-32.65-.76-48.96-.19-6.3,1.2-11.39,4.83-16.2,5.24-6.93,9.98-14.36,14.95-21.56.93-1.35,1.81-2.82,3.96-3.04Z"/>
        <path class="cls-2" d="M21.55,27.18c2.49,0,4.97.03,7.46.03,16.11,0,32.22,0,48.33,0,1.15,0,2.31-.06,3.46-.1.33.11.66.31.99.3,4.12-.09,8.25-.22,12.37-.33,4.1.04,8.19.06,12.29.12,4.72.06,9.44.14,14.16.23.41,0,.81.12,1.75.27-13.07,17.38-25.23,34.97-37.81,52.15-.26-.11-.52-.22-.79-.33-.09-1.04-.25-2.08-.25-3.12,0-6.53.06-13.06.05-19.59-.01-6.42-1.21-7.72-6.72-7.71-11.4.02-22.8-.05-34.21.03-2.85.02-5.29-1.01-7.29-3.18-5.04-5.48-9.86-11.21-14.03-17.6.08-.38.16-.77.24-1.15Z"/>
      </g>
      <g>
        <path class="cls-1" d="M179.23,208.2c-6.75,0-10.04,5.66-10.04-54.74,0-50.54-1.46-61.85,3.65-62.04h15.14c2.74,0,6.02-.91,6.2,2.55.37,2.74.73,6.2,4.38,6.2,2.74,0,5.84-2.92,9.67-5.84,3.83-2.74,8.21-5.66,13.14-5.66,9.31,0,16.97,8.03,16.97,17.88,0,12.77-10.4,20.44-15.87,20.44-2.19,0,.36-12.23-12.22-12.23-15.33,0-16.42,24.63-16.42,35.58,0,36.31,6.2,51.63,6.2,54.92-.18,2.92-4.2,2.92-6.2,2.92h-14.6Z"/>
        <path class="cls-1" d="M287.43,132.3c5.29-.91,9.49-1.82,9.49-7.85,0-9.31-9.67-14.23-17.7-14.23-18.61,0-15.87,15.69-19.89,15.69-5.84,0-12.22-7.11-12.22-14.96,0-13.5,15.14-22.26,31.93-22.26,5.84,0,30.84-.18,40.14,25.36,3.83,10.58,4.2,64.59,4.2,70.98,0,8.03,1.46,12.77,1.46,18.98,0,3.83-17.15,4.2-33.39,4.2-43.97,0-47.07-22.62-47.07-33.57,0-22.99,22.62-38.86,43.06-42.33ZM298.74,164.23c0-6.39,1.09-14.05-7.66-14.05-10.77,0-22.08,9.12-22.08,20.25,0,10.22,8.94,16.24,18.61,16.24,10.77,0,11.13-5.47,11.13-14.41v-8.03Z"/>
        <path class="cls-1" d="M415.87,91.43c6.39,0,7.66,0,7.66,10.4,0,76.63-39.59,109.11-45.61,109.11-4.2,0-40.87-30.65-40.87-113.85,0-5.29.73-5.66,5.66-5.66h14.05c2.55,0,7.85-.91,7.85,2.92,0,4.2-.91,8.03-.91,16.06,0,44.88,13.32,62.58,17.52,62.58,6.39,0,18.25-25,18.25-60.58,0-6.39-1.1-11.49-1.1-17.15,0-4.2,1.82-3.83,5.47-3.83h12.04Z"/>
        <path class="cls-1" d="M431.19,154.74c0-44.15,24.45-66.05,48.9-66.05,20.07,0,37.04,11.31,37.04,32.84,0,39.23-58.75,31.02-58.75,49.99,0,8.58,13.87,14.78,22.99,14.78,29.92,0,29.92-22.81,32.48-22.81,2.74,0,3.28,9.49,3.28,10.95,0,23.17-17.88,36.49-39.78,36.49-32.66,0-46.16-27-46.16-56.2ZM455.83,136.68c0,2.01.91,4.01,3.28,4.01,2.19,0,35.4-7.3,35.4-16.6s-8.39-13.87-15.33-13.87c-14.78,0-23.35,15.87-23.35,26.46Z"/>
        <path class="cls-1" d="M538.84,208.2c-6.39,0-5.66-61.12-5.66-65.32,0-8.58-.73-90.32,7.48-90.32h17.33c2.01,0,7.48-.55,7.48,3.47,0,1.09-7.66,27.37-7.66,72.8,0,50.18,6.93,74.81,6.93,77.18,0,3.1-4.74,2.19-6.75,2.19h-19.16Z"/>
        <path class="cls-2" d="M574.78,187.95c0-2.19.37-7.48,5.29-7.48,20.98,0,26.46-6.75,26.46-9.12,0-7.66-31.75-20.62-31.75-71.34,0-8.21-.18-8.58,6.93-8.58h14.96c2.37,0,6.39-.55,6.39,3.28,0,2.55-1.64,8.21-1.64,13.68,0,21.35,17.88,41.42,21.53,41.42,7.3,0,12.22-21.89,12.22-35.94,0-9.12-2.01-16.79-2.01-19.71,0-3.29,4.56-2.74,6.57-2.74h16.24c3.47.55,2.92,6.39,2.92,14.23,1.64,53.46-39.59,105.28-79.73,105.28-4.2,0-4.38-2.74-4.38-6.93v-16.06Z"/>
        <path class="cls-2" d="M667.46,154.74c0-44.15,24.45-66.05,48.9-66.05,20.07,0,37.04,11.31,37.04,32.84,0,39.23-58.75,31.02-58.75,49.99,0,8.58,13.87,14.78,22.99,14.78,29.92,0,29.92-22.81,32.48-22.81,2.74,0,3.28,9.49,3.28,10.95,0,23.17-17.88,36.49-39.78,36.49-32.66,0-46.16-27-46.16-56.2ZM692.1,136.68c0,2.01.91,4.01,3.28,4.01,2.19,0,35.4-7.3,35.4-16.6s-8.39-13.87-15.33-13.87c-14.78,0-23.35,15.87-23.35,26.46Z"/>
        <path class="cls-2" d="M778.03,208.2c-6.75,0-10.03,5.66-10.03-54.74,0-50.54-1.46-61.85,3.65-62.04h15.14c2.74,0,6.02-.91,6.2,2.55.37,2.74.73,6.2,4.38,6.2,2.74,0,5.84-2.92,9.67-5.84,3.83-2.74,8.21-5.66,13.14-5.66,9.31,0,16.97,8.03,16.97,17.88,0,12.77-10.4,20.44-15.87,20.44-2.19,0,.37-12.23-12.22-12.23-15.33,0-16.42,24.63-16.42,35.58,0,36.31,6.2,51.63,6.2,54.92-.18,2.92-4.2,2.92-6.2,2.92h-14.6Z"/>
        <path class="cls-2" d="M854.29,208.2c-4.74,0-9.12.91-9.12-5.11,0-43.97,43.61-81.19,43.61-86.48,0-3.47-6.02-3.65-8.21-3.65-15.51,0-19.16,4.74-22.44,4.74-3.83,0-7.66-21.71-7.66-23.9,0-3.1,5.66-2.37,7.48-2.37h54.92c5.11,0,8.03-.73,8.03,5.66,0,2.19-.18,18.06-2.19,21.71-6.02,11.31-41.05,45.61-41.05,63.86,0,3.65,2.19,4.01,7.48,4.01,21.35,0,23.9-5.66,26.82-5.66,3.28,0,8.03,21.71,8.03,24.63,0,2.74-5.47,2.55-7.12,2.55h-58.57Z"/>
      </g>
    </g>
  </g>
</svg>